<svg width="44" height="44" viewBox="0 0 44 44" fill="none" xmlns="http://www.w3.org/2000/svg">
<path d="M22 38.5C31.1127 38.5 38.5 31.1127 38.5 22C38.5 12.8873 31.1127 5.5 22 5.5C12.8873 5.5 5.5 12.8873 5.5 22C5.5 31.1127 12.8873 38.5 22 38.5Z" stroke="#C8BAB2" stroke-width="3" stroke-linecap="round" stroke-linejoin="round"/>
<path d="M13.75 24.75C15.2485 27.8065 17.4358 30.4736 20.1399 32.5414C22.8439 34.6093 25.991 36.0214 29.3333 36.6667" stroke="#C8BAB2" stroke-width="3" stroke-linecap="round" stroke-linejoin="round"/>
<path d="M22 22C23.4363 24.5441 25.5996 26.6013 28.2127 27.9078C30.8258 29.2144 33.7696 29.7108 36.6667 29.3333" stroke="#C8BAB2" stroke-width="3" stroke-linecap="round" stroke-linejoin="round"/>
<path d="M23.7435 13.4801C20.3472 13.2495 16.9437 13.8103 13.8009 15.1182C10.6581 16.426 7.86168 18.4454 5.63165 21.0173" stroke="#C8BAB2" stroke-width="3" stroke-linecap="round" stroke-linejoin="round"/>
<path d="M22 22C19.0786 21.9718 16.2153 22.8167 13.7773 24.4265C11.3392 26.0362 9.43747 28.3374 8.31581 31.035" stroke="#C8BAB2" stroke-width="3" stroke-linecap="round" stroke-linejoin="round"/>
<path d="M28.5066 27.7702C30.4044 24.9442 31.6205 21.7164 32.0592 18.3407C32.498 14.965 32.1474 11.5335 31.0351 8.31628" stroke="#C8BAB2" stroke-width="3" stroke-linecap="round" stroke-linejoin="round"/>
<path d="M22 22C23.4851 19.4841 24.185 16.582 24.01 13.6657C23.8349 10.7494 22.7929 7.95183 21.0175 5.63163" stroke="#C8BAB2" stroke-width="3" stroke-linecap="round" stroke-linejoin="round"/>
</svg>
