<svg width="44" height="44" viewBox="0 0 44 44" fill="none" xmlns="http://www.w3.org/2000/svg">
<path d="M27.1444 14.6048C26.9158 14.2057 26.7673 13.7651 26.7074 13.308C26.6476 12.851 26.6775 12.3865 26.7954 11.9411C26.9134 11.4958 27.1171 11.0783 27.395 10.7124C27.6728 10.3466 28.0193 10.0397 28.4146 9.80919C28.81 9.57868 29.2464 9.42911 29.699 9.36903C30.1516 9.30895 30.6115 9.33954 31.0524 9.45905C31.4933 9.57856 31.9066 9.78464 32.2686 10.0655C32.6306 10.3464 32.9342 10.6966 33.1622 11.096L36.6365 17.1733C37.5495 18.7695 38.1422 20.5317 38.3808 22.3593C38.6194 24.1868 38.4991 26.0439 38.0269 27.8246C37.5546 29.6052 36.7397 31.2744 35.6286 32.7369C34.5175 34.1994 33.132 35.4265 31.5512 36.3482C29.9705 37.2699 28.2254 37.8681 26.4157 38.1086C24.606 38.3491 22.7671 38.2272 21.0041 37.7499C19.241 37.2726 17.5883 36.4492 16.1404 35.3268C14.6925 34.2044 13.4777 32.8049 12.5654 31.2083L5.96404 19.6614C5.50422 18.8556 5.38004 17.8983 5.61877 17C5.8575 16.1018 6.43962 15.336 7.2372 14.8709C8.03477 14.4059 8.98254 14.2797 9.87222 14.52C10.7619 14.7604 11.5207 15.3476 11.9818 16.1527L15.1089 21.6223" stroke="#BC6349" stroke-width="3" stroke-linecap="round" stroke-linejoin="round"/>
<path d="M15.9151 8.99801C15.4553 8.19216 15.3311 7.23491 15.5698 6.33663C15.8086 5.43836 16.3907 4.67255 17.1882 4.20752C17.9858 3.74248 18.9336 3.61627 19.8233 3.85661C20.7129 4.09696 21.4717 4.68419 21.9329 5.48927L28.8816 17.6439L27.1444 14.6052" stroke="#BC6349" stroke-width="3" stroke-linecap="round" stroke-linejoin="round"/>
<path d="M15.9151 8.99767L20.4318 16.8982L14.5254 6.56673C14.2975 6.16728 13.9938 5.81711 13.6318 5.53622C13.2698 5.25534 12.8566 5.04926 12.4157 4.92975C11.9748 4.81024 11.5149 4.77966 11.0622 4.83974C10.6096 4.89982 10.1732 5.04939 9.77784 5.2799C9.38249 5.51041 9.036 5.81734 8.75818 6.18315C8.48035 6.54897 8.27663 6.96649 8.15866 7.41185C8.04069 7.85721 8.01079 8.32169 8.07066 8.77872C8.13053 9.23576 8.279 9.67641 8.50758 10.0755L15.1089 21.6224" stroke="#BC6349" stroke-width="3" stroke-linecap="round" stroke-linejoin="round"/>
<path d="M28.8816 17.644C27.2856 18.5746 26.1209 20.1073 25.644 21.9051C25.167 23.7028 25.4167 25.6183 26.3381 27.2301" stroke="#BC6349" stroke-width="3" stroke-linecap="round" stroke-linejoin="round"/>
<path d="M30.1611 3.66663C31.7468 3.66641 33.3045 4.08794 34.6776 4.88881C36.0507 5.68968 37.1907 6.84163 37.983 8.22876" stroke="#BC6349" stroke-width="3" stroke-linecap="round" stroke-linejoin="round"/>
<path d="M13.6742 40.333C11.3187 38.6825 9.35515 36.5247 7.92517 34.0151" stroke="#BC6349" stroke-width="3" stroke-linecap="round" stroke-linejoin="round"/>
</svg>
