<svg width="44" height="44" viewBox="0 0 44 44" fill="none" xmlns="http://www.w3.org/2000/svg">
<path d="M37.15 22.8211L34.3954 26.1137L26.8204 20.4848L24.6168 22.1733C23.6632 22.904 22.5033 23.299 21.3113 23.299C20.1193 23.299 18.9595 22.904 18.0059 22.1733L17.0726 21.4582C16.9148 21.3372 16.7842 21.183 16.6897 21.006C16.5953 20.829 16.5392 20.6334 16.5252 20.4323C16.5112 20.2312 16.5397 20.0294 16.6087 19.8405C16.6777 19.6516 16.7856 19.4801 16.9251 19.3376L23.6625 12.4544C23.7904 12.3237 23.9422 12.2201 24.1093 12.1493C24.2764 12.0786 24.4555 12.0422 24.6363 12.0422L31.6409 12.0424" stroke="#EDEDED" stroke-width="3" stroke-linecap="round" stroke-linejoin="round"/>
<path d="M19.2454 36.6664L14.0566 35.3412C13.8461 35.2874 13.651 35.1835 13.4871 35.0381L9.60452 31.5901" stroke="#EDEDED" stroke-width="3" stroke-linecap="round" stroke-linejoin="round"/>
<path d="M6.85004 22.632L16.2604 30.1504C16.4124 30.2718 16.5876 30.3593 16.7748 30.4071L26.7526 32.9555C26.9833 33.0144 27.225 33.0113 27.4542 32.9465C27.6834 32.8816 27.8923 32.7572 28.0605 32.5854L34.3954 26.1133" stroke="#EDEDED" stroke-width="3" stroke-linecap="round" stroke-linejoin="round"/>
<path d="M12.458 11.8544L21.2932 9.22286C21.6088 9.12886 21.9469 9.15329 22.2464 9.29175L28.1977 12.0429" stroke="#EDEDED" stroke-width="3" stroke-linecap="round" stroke-linejoin="round"/>
<path d="M41.4053 20.6477L37.15 22.8214L31.6409 12.0428L35.9396 9.84692C36.2625 9.68194 36.636 9.65314 36.9795 9.76671C37.3231 9.88029 37.6092 10.1272 37.7763 10.4542L42.0102 18.7379C42.0949 18.9035 42.1464 19.0847 42.1618 19.2709C42.1772 19.4571 42.1561 19.6446 42.0998 19.8224C42.0434 20.0002 41.953 20.1647 41.8338 20.3064C41.7146 20.4481 41.5689 20.5641 41.4053 20.6477Z" stroke="#EDEDED" stroke-width="3" stroke-linecap="round" stroke-linejoin="round"/>
<path d="M6.85004 22.6326L4.72236 21.5457L2.59468 20.4589C2.43109 20.3753 2.28542 20.2593 2.16619 20.1176C2.04696 19.9759 1.95655 19.8113 1.90024 19.6335C1.84393 19.4558 1.82284 19.2683 1.83822 19.0821C1.85359 18.8959 1.90511 18.7147 1.98977 18.549L6.22366 10.2653C6.39079 9.93832 6.67694 9.69145 7.02048 9.57787C7.36402 9.4643 7.73748 9.4931 8.06044 9.65807L12.3591 11.8539L6.85004 22.6326Z" stroke="#EDEDED" stroke-width="3" stroke-linecap="round" stroke-linejoin="round"/>
</svg>
