<svg width="103" height="82" viewBox="0 0 103 82" fill="none" xmlns="http://www.w3.org/2000/svg">
<path d="M25.8279 71.5536L24.0757 70.0964C22.7031 68.9549 21.651 67.6348 20.9193 66.1361C20.1877 64.6374 19.6691 62.673 19.3636 60.2427C19.1418 58.4261 18.8089 57.0117 18.3648 55.9995C17.9158 54.9337 17.2971 54.0729 16.5086 53.4171C15.5157 52.5914 14.4265 52.3286 13.2411 52.6287C12.0799 52.8995 10.9536 53.6939 9.86231 55.012C8.91649 56.1543 8.15802 57.4277 7.5869 58.8322C7.01579 60.2366 6.60999 61.6797 6.36951 63.1613L1.63846 59.2268C1.90319 57.7159 2.42307 56.1947 3.1981 54.663C3.96819 53.0778 4.87464 51.6555 5.91746 50.396C7.34832 48.6679 8.88437 47.3487 10.5256 46.4385C12.1619 45.4747 13.821 45.0493 15.5029 45.162C17.1798 45.2212 18.8214 45.9187 20.4276 47.2545C21.3914 48.0559 22.1804 49.0089 22.7947 50.1132C23.4041 51.164 23.8629 52.337 24.1714 53.6321C24.4798 54.9272 24.667 56.3688 24.7329 57.9568C24.8003 60.4364 25.0709 62.343 25.5447 63.6767C26.0184 65.0104 26.674 66.1244 27.5116 67.0187L28.5926 68.2145L25.8279 71.5536ZM36.3657 77.4979C34.971 79.1824 32.4562 79.4398 30.7748 78.0415C29.0933 76.6432 28.882 74.1186 30.2767 72.4341C31.6714 70.7497 34.1862 70.4922 35.8676 71.8905C37.5491 73.2889 37.7604 75.8135 36.3657 77.4979Z" fill="#1B1B1B"/>
<path d="M79.2158 69.8281L80.1412 67.7413C80.866 66.1067 81.8491 64.7327 83.0903 63.6193C84.3316 62.5059 86.0777 61.4714 88.3288 60.5159C90.0133 59.8079 91.2814 59.1021 92.1334 58.3984C93.0354 57.6754 93.6946 56.8444 94.111 55.9054C94.6354 54.7229 94.5931 53.6006 93.9843 52.5386C93.4101 51.4919 92.3426 50.6214 90.7817 49.9269C89.4289 49.3251 88.001 48.9396 86.4978 48.7705C84.9946 48.6014 83.4991 48.6023 82.0113 48.7732L84.5098 43.1389C86.0323 42.9835 87.6337 43.0714 89.3142 43.4026C91.0447 43.7145 92.6558 44.2023 94.1473 44.8659C96.1938 45.7764 97.8761 46.8996 99.194 48.2356C100.562 49.5522 101.42 51.0371 101.766 52.6904C102.163 54.3244 101.937 56.0978 101.089 58.0106C100.58 59.1583 99.8784 60.1787 98.984 61.0716C98.1398 61.9452 97.1376 62.7069 95.9773 63.3567C94.8171 64.0064 93.4834 64.579 91.9763 65.0744C89.6135 65.8137 87.8558 66.5932 86.7032 67.4129C85.5507 68.2326 84.6582 69.1681 84.026 70.2193L83.1701 71.5874L79.2158 69.8281ZM76.358 81.611C74.3567 80.7206 73.4358 78.3673 74.3237 76.3648C75.2117 74.3624 77.5723 73.4691 79.5736 74.3595C81.575 75.25 82.4959 77.6033 81.6079 79.6057C80.72 81.6081 78.3594 82.5014 76.358 81.611Z" fill="#1B1B1B"/>
<path d="M49.376 47.6416L49.0376 43.9805C48.7725 41.1126 49.0751 38.4071 49.9453 35.8638C50.8155 33.3205 52.4575 30.4895 54.8711 27.3709C56.6828 25.0472 57.911 23.0551 58.5558 21.3946C59.2558 19.6673 59.5297 17.9799 59.3774 16.3324C59.1857 14.2578 58.2448 12.7149 56.5547 11.7037C54.9255 10.6868 52.7411 10.3066 50.0015 10.563C47.6272 10.7853 45.3172 11.3708 43.0714 12.3195C40.8256 13.2683 38.7242 14.4497 36.767 15.8638L35.8533 5.97888C37.8713 4.55907 40.1915 3.41871 42.8138 2.55779C45.4914 1.63016 48.1391 1.04382 50.757 0.798789C54.3489 0.462579 57.5959 0.712575 60.4979 1.54877C63.4552 2.31826 65.8268 3.72724 67.6127 5.77574C69.4539 7.75752 70.5295 10.4264 70.8398 13.7824C71.0259 15.796 70.8411 17.7828 70.2854 19.7427C69.7849 21.636 68.9744 23.4967 67.8538 25.3248C66.7332 27.153 65.3083 29.0097 63.5789 30.8949C60.8383 33.7979 58.9799 36.2798 58.0036 38.3407C57.0274 40.4015 56.5078 42.4196 56.4447 44.395L56.3163 46.992L49.376 47.6416ZM54.6143 66.446C51.1016 66.7748 47.9587 64.1964 47.6339 60.6832C47.3092 57.17 49.9256 54.0525 53.4384 53.7237C56.9512 53.3949 60.0941 55.9733 60.4188 59.4865C60.7435 62.9997 58.1271 66.1172 54.6143 66.446Z" fill="#1B1B1B"/>
</svg>
