<svg width="542" height="260" viewBox="0 0 542 260" fill="none" xmlns="http://www.w3.org/2000/svg">
<g opacity="0.7">
<path d="M127.097 -161.813C102.198 -118.687 46.9783 -103.954 3.75986 -128.907C-39.4586 -153.859 -54.3096 -209.047 -29.4108 -252.173C-4.51195 -295.299 50.7081 -310.032 93.9265 -285.08C137.145 -260.128 151.996 -204.939 127.097 -161.813Z" fill="#E8E8DC"/>
<path d="M36.9305 -5.6401C12.0317 37.486 -43.1883 52.2188 -86.4068 27.2666C-129.625 2.31438 -144.476 -52.8739 -119.577 -96C-94.6786 -139.126 -39.4586 -153.859 3.75986 -128.907C46.9783 -103.954 61.8294 -48.7661 36.9305 -5.6401Z" fill="#E8E8DC"/>
<path d="M-53.2361 150.533C-78.135 193.659 -133.355 208.392 -176.573 183.44C-219.792 158.488 -234.643 103.299 -209.744 60.1732C-184.845 17.0472 -129.625 2.31438 -86.4068 27.2666C-43.1883 52.2188 -28.3373 107.407 -53.2361 150.533Z" fill="#E8E8DC"/>
<path d="M283.605 -71.4534C258.706 -28.3274 203.486 -13.5945 160.268 -38.5467C117.049 -63.4989 102.198 -118.687 127.097 -161.813C151.996 -204.939 207.216 -219.672 250.435 -194.72C293.653 -169.768 308.504 -114.579 283.605 -71.4534Z" fill="#E8E8DC"/>
<path d="M193.439 84.7198C168.54 127.846 113.32 142.579 70.1012 117.627C26.8827 92.6743 12.0317 37.486 36.9305 -5.6401C61.8294 -48.7661 117.049 -63.4989 160.268 -38.5467C203.486 -13.5945 218.337 41.5938 193.439 84.7198Z" fill="#E8E8DC"/>
<path d="M103.272 240.893C78.373 284.019 23.153 298.752 -20.0655 273.8C-63.284 248.848 -78.135 193.659 -53.2361 150.533C-28.3373 107.407 26.8827 92.6743 70.1012 117.627C113.32 142.579 128.171 197.767 103.272 240.893Z" fill="#E8E8DC"/>
<path d="M438.728 18.1069C413.829 61.2329 358.919 76.1448 316.083 51.4134C273.247 26.682 258.706 -28.3274 283.605 -71.4534C308.504 -114.579 363.414 -129.491 406.25 -104.76C449.086 -80.0285 463.627 -25.0192 438.728 18.1069Z" fill="#E8E8DC"/>
<path d="M348.561 174.28C323.663 217.406 268.753 232.318 225.917 207.587C183.081 182.855 168.54 127.846 193.439 84.7198C218.337 41.5938 273.247 26.682 316.083 51.4134C358.919 76.1448 373.46 131.154 348.561 174.28Z" fill="#E8E8DC"/>
<path d="M258.395 330.453C233.496 373.579 178.586 388.491 135.75 363.76C92.914 339.028 78.373 284.019 103.272 240.893C128.171 197.767 183.081 182.855 225.917 207.587C268.753 232.318 283.294 287.327 258.395 330.453Z" fill="#E8E8DC"/>
<path d="M596.621 109.266C571.722 152.392 516.192 166.946 472.591 141.773C428.99 116.6 413.829 61.2329 438.728 18.1069C463.627 -25.0192 519.157 -39.573 562.758 -14.4C606.359 10.773 621.52 66.1404 596.621 109.266Z" fill="#E8E8DC"/>
<path d="M506.454 265.44C481.556 308.566 426.026 323.12 382.425 297.947C338.824 272.774 323.663 217.406 348.561 174.28C373.46 131.154 428.99 116.6 472.591 141.773C516.192 166.946 531.353 222.314 506.454 265.44Z" fill="#E8E8DC"/>
<path d="M416.288 421.613C391.389 464.739 335.859 479.293 292.258 454.12C248.657 428.947 233.496 373.579 258.395 330.453C283.294 287.327 338.824 272.774 382.425 297.947C426.026 323.12 441.187 378.487 416.288 421.613Z" fill="#E8E8DC"/>
<path d="M751.744 198.827C726.845 241.953 671.625 256.686 628.407 231.733C585.188 206.781 570.337 151.593 595.236 108.467C620.135 65.3407 675.355 50.6079 718.573 75.5601C761.792 100.512 776.643 155.701 751.744 198.827Z" fill="#E8E8DC"/>
<path d="M661.577 355C636.679 398.126 581.459 412.859 538.24 387.907C495.022 362.954 480.171 307.766 505.069 264.64C529.968 221.514 585.188 206.781 628.407 231.733C671.625 256.686 686.476 311.874 661.577 355Z" fill="#E8E8DC"/>
<path d="M571.411 511.173C546.512 554.299 491.292 569.032 448.073 544.08C404.855 519.128 390.004 463.939 414.903 420.813C439.802 377.687 495.022 362.954 538.24 387.907C581.459 412.859 596.31 468.047 571.411 511.173Z" fill="#E8E8DC"/>
</g>
</svg>
