<svg width="154" height="137" viewBox="0 0 154 137" fill="none" xmlns="http://www.w3.org/2000/svg">
<path fill-rule="evenodd" clip-rule="evenodd" d="M39.1501 17.125H114.474V93.3001H39.1501V17.125ZM40.792 18.7682V91.6569H112.832V18.7682H40.792Z" fill="#1B1B1B"/>
<path fill-rule="evenodd" clip-rule="evenodd" d="M44.0816 21.4685H110.035V88.5613H94.3871V82.5746H104.547V75.4319H100.862V79.8744H53.058V31.1428H84.0938V36.8332H71.7641V39.6325H91.8861V70.4959H62.3299V39.8297H65.6832V36.636H58.5467V73.5915H95.0772V63.5223H101.849V69.6429H104.448V26.5669H49.7679V66.9422H44.0816V21.4685ZM45.7235 23.1117V65.2989H48.126V24.9236H106.09V71.2861H100.207V65.1655H96.7191V75.2347H56.9048V34.9928H67.3251V41.4729H63.9718V68.8527H90.2442V41.2758H70.1222V35.19H82.4519V32.786H54.6999V78.2312H99.2201V73.7887H106.189V84.2179H96.029V86.9181H108.393V23.1117H45.7235Z" fill="#1B1B1B"/>
<path fill-rule="evenodd" clip-rule="evenodd" d="M44.0816 70.0377H50.0634V82.5746H90.998V88.5595L90.1788 88.5613L90.1771 87.7397C90.1788 88.5613 90.1787 88.5613 90.1783 88.5613L89.6703 88.5624C89.3387 88.5631 88.8523 88.5641 88.2333 88.5654C86.9953 88.5679 85.2267 88.5713 83.1044 88.5752C78.8598 88.5829 73.2003 88.5921 67.5407 88.5983C61.8812 88.6044 56.2212 88.6075 51.9758 88.6029C49.8533 88.6006 48.0833 88.5964 46.8434 88.5896C46.2239 88.5862 45.7347 88.5822 45.3994 88.5775C45.2325 88.5751 45.0996 88.5725 45.0065 88.5696C44.9616 88.5682 44.9175 88.5664 44.881 88.564C44.8658 88.563 44.8346 88.5608 44.8001 88.5561L44.7997 88.556C44.7872 88.5543 44.7417 88.5482 44.6867 88.533C44.653 88.523 44.5618 88.4876 44.5053 88.459C44.3919 88.3833 44.1362 88.0345 44.0816 87.7397V70.8595C44.0816 70.8594 44.0816 70.8593 44.9025 70.8593H44.0816V70.0377ZM45.7235 71.6809V86.938C46.0228 86.9412 46.4017 86.9439 46.8524 86.9464C48.0885 86.9531 49.8556 86.9574 51.9776 86.9597C56.2211 86.9643 61.8797 86.9612 67.5389 86.955C73.1979 86.9489 78.857 86.9396 83.1014 86.9319C85.2236 86.9281 86.9921 86.9246 88.23 86.9221C88.6775 86.9212 89.0556 86.9204 89.3561 86.9198V84.2178H48.4215V71.6809H45.7235Z" fill="#1B1B1B"/>
<path fill-rule="evenodd" clip-rule="evenodd" d="M87.8277 30.4517H102.046V61.3402H95.2254V36.9076H87.8277V30.4517ZM89.4696 32.0949V35.2644H96.8673V59.6969H100.404V32.0949H89.4696Z" fill="#1B1B1B"/>
<path d="M39.6074 106.462C38.2818 106.634 38.1963 106.762 38.1963 108.024V109.822C38.1963 110.571 38.2176 111.277 38.3248 111.855C36.9992 112.154 35.267 112.625 33.471 112.625C28.6173 112.625 25.6667 109.608 25.6667 105.306C25.6667 100.791 29.3445 98.0945 33.6207 98.0945C35.8016 98.0945 37.4053 98.5227 38.0683 98.6295C38.1113 99.4212 38.2181 100.727 38.389 102.075L37.7477 102.204C37.2344 100.384 36.6143 99.614 35.2675 99.165C34.7758 98.994 33.8989 98.8867 33.2788 98.8867C30.0071 98.8867 27.8905 101.134 27.8905 105.05C27.8905 108.452 29.6439 111.833 33.7922 111.833C34.5189 111.833 35.182 111.684 35.6098 111.469C36.0589 111.213 36.3366 110.977 36.3366 110.1V108.345C36.3366 106.783 36.1657 106.611 34.1128 106.462V105.841H39.6079V106.462H39.6074Z" fill="#1B1B1B"/>
<path d="M46.2566 102.654C48.9295 102.654 50.9182 104.686 50.9182 107.447C50.9182 110.914 48.3525 112.561 46.2566 112.561C43.306 112.561 41.5096 110.186 41.5096 107.789C41.5101 104.301 44.2255 102.654 46.2566 102.654ZM46.0002 103.381C44.6958 103.381 43.52 104.643 43.52 107.126C43.52 109.844 44.7176 111.813 46.4706 111.813C47.7961 111.813 48.9083 110.849 48.9083 107.918C48.9083 105.414 47.8816 103.381 46.0002 103.381Z" fill="#1B1B1B"/>
<path d="M52.1153 112.305V111.705C53.4839 111.577 53.6548 111.47 53.6548 110.058V99.8073C53.6548 98.5019 53.5481 98.3734 52.1795 98.2023V97.646C53.3342 97.5175 54.6598 97.1753 55.3441 96.9186C55.3441 97.9244 55.3441 98.9514 55.3441 99.9577V110.058C55.3441 111.47 55.4725 111.578 56.8624 111.706V112.305H52.1153V112.305Z" fill="#1B1B1B"/>
<path d="M68.3233 111.77C67.8742 111.855 66.2705 112.112 65.0091 112.561C65.0091 112.112 65.0091 111.62 65.0091 111.17C64.6242 111.406 64.0684 111.705 63.6835 111.941C62.8283 112.433 62.2507 112.561 61.9943 112.561C60.2838 112.561 58.017 110.849 58.017 107.853C58.017 104.879 60.6257 102.654 63.555 102.654C63.8544 102.654 64.56 102.697 65.0091 102.889V99.7431C65.0091 98.3734 64.8594 98.3309 63.3411 98.2023V97.646C64.4103 97.4962 65.9068 97.1965 66.6983 96.9186C66.6983 97.7103 66.6983 98.6522 66.6983 99.5294V109.823C66.6983 110.935 66.848 111.085 67.639 111.128L68.3233 111.171V111.77ZM65.0091 104.579C64.5175 103.83 63.598 103.488 62.764 103.488C61.7378 103.488 59.9201 104.173 59.9201 107.255C59.9201 109.844 61.5239 111.213 62.8925 111.235C63.6622 111.235 64.4962 110.85 65.0096 110.465V104.579H65.0091Z" fill="#1B1B1B"/>
<path d="M77.1109 110.486C75.7423 112.198 74.2458 112.562 73.5615 112.562C70.9528 112.562 69.3708 110.422 69.3708 107.961C69.3708 106.505 69.8841 105.158 70.7606 104.216C71.6588 103.21 72.8347 102.654 73.9464 102.654C75.8065 102.654 77.2181 104.259 77.2181 105.97C77.1969 106.399 77.1326 106.591 76.7902 106.677C76.3624 106.762 73.6257 106.955 71.0812 107.04C71.017 109.908 72.7705 111.085 74.2887 111.085C75.1652 111.085 75.978 110.721 76.769 109.994L77.1109 110.486ZM73.4335 103.467C72.4498 103.467 71.4879 104.387 71.1885 106.121C72.3861 106.121 73.5832 106.121 74.8451 106.056C75.2299 106.056 75.3584 105.95 75.3584 105.628C75.3792 104.494 74.6307 103.467 73.4335 103.467Z" fill="#1B1B1B"/>
<path d="M84.6376 112.305V111.705C85.8777 111.577 86.0061 111.427 86.0061 109.972V106.441C86.0061 104.942 85.4715 103.937 84.0605 103.937C83.184 103.937 82.35 104.45 81.687 105.049V110.057C81.687 111.533 81.8154 111.576 83.0768 111.704V112.304H78.4582V111.704C79.8693 111.555 79.9977 111.469 79.9977 110.057V105.649C79.9977 104.258 79.848 104.193 78.6934 104.001V103.445C79.7413 103.274 80.7887 102.995 81.687 102.589C81.687 103.081 81.687 103.766 81.687 104.279C82.1148 103.98 82.5852 103.659 83.141 103.295C83.7398 102.91 84.2957 102.653 84.9157 102.653C86.6262 102.653 87.6954 103.915 87.6954 105.991V110.057C87.6954 111.513 87.8238 111.577 89.0639 111.705V112.304H84.6376V112.305Z" fill="#1B1B1B"/>
<path d="M101.038 108.752C100.909 109.416 100.268 111.641 100.054 112.305H90.1114V111.705C92.057 111.513 92.228 111.406 92.228 109.587V101.091C92.228 99.2719 92.0141 99.165 90.3036 98.994V98.3947H96.0343V98.994C94.3238 99.165 94.0887 99.2506 94.0887 101.091V109.801C94.0887 111.106 94.2596 111.406 95.4785 111.427C95.4997 111.427 97.0392 111.448 97.1677 111.448C98.2581 111.448 98.5788 111.32 99.0709 110.785C99.6054 110.228 100.055 109.372 100.375 108.58L101.038 108.752Z" fill="#1B1B1B"/>
<path d="M110.98 112.305V111.705C112.37 111.534 112.541 111.32 112.242 110.507C111.964 109.672 111.536 108.602 111.087 107.254H106.469C106.127 108.217 105.806 109.052 105.507 109.929C105.036 111.32 105.336 111.491 107.089 111.705V112.305H102.15V111.705C103.497 111.534 103.839 111.384 104.588 109.458L109.014 98.2236L109.698 98.095C111.045 101.755 112.521 105.799 113.868 109.501C114.552 111.363 114.744 111.534 116.263 111.705V112.305H110.98ZM108.842 100.899C108.158 102.739 107.431 104.686 106.789 106.377H110.788L108.842 100.899Z" fill="#1B1B1B"/>
<path d="M124.43 104.772C126.483 105.115 128.15 106.099 128.15 108.175C128.15 109.63 127.338 110.786 126.076 111.47C124.965 112.091 123.874 112.305 122.377 112.305H117.117V111.706C118.935 111.535 119.042 111.342 119.042 109.651V101.07C119.042 99.2941 118.849 99.1443 117.117 98.9944V98.3951H122.72C124.323 98.3951 125.328 98.6735 126.013 99.1443C126.761 99.658 127.274 100.45 127.274 101.541C127.274 103.552 125.627 104.473 124.43 104.772ZM121.971 104.515C124.323 104.515 125.285 103.574 125.285 101.819C125.285 100.321 124.366 99.1655 122.313 99.1655C121.714 99.1655 121.329 99.2298 121.115 99.3796C120.944 99.5082 120.88 99.7436 120.88 100.428V104.516H121.971V104.515ZM120.881 109.608C120.881 111.149 121.244 111.534 122.762 111.534C124.43 111.534 126.055 110.635 126.055 108.388C126.055 106.206 124.516 105.264 121.907 105.264H120.881V109.608Z" fill="#1B1B1B"/>
<path d="M55.7444 118.73C55.4894 119.067 55.1012 119.322 54.7535 119.322C54.0175 119.322 53.5824 118.724 53.5824 118.103C53.5824 117.645 53.7794 117.262 54.1677 116.966C54.4748 116.728 54.8225 116.636 55.0485 116.636C55.3093 116.636 55.5005 116.717 55.5875 116.792C55.6686 116.856 55.6802 116.897 55.6802 116.96C55.6802 117.099 55.5353 117.221 55.4716 117.221C55.4426 117.221 55.4194 117.21 55.3615 117.163C55.1818 117.001 54.9848 116.92 54.7762 116.92C54.3937 116.92 54.0576 117.244 54.0576 117.848C54.0518 118.654 54.6023 118.921 54.9384 118.921C55.1818 118.921 55.3788 118.857 55.6454 118.602L55.7444 118.73Z" fill="#1B1B1B"/>
<path d="M57.3501 116.637C58.0745 116.637 58.6139 117.187 58.6139 117.936C58.6139 118.876 57.9185 119.323 57.3501 119.323C56.5504 119.323 56.0631 118.679 56.0631 118.029C56.0631 117.083 56.7991 116.637 57.3501 116.637ZM57.2806 116.834C56.9271 116.834 56.6083 117.176 56.6083 117.849C56.6083 118.585 56.9329 119.119 57.408 119.119C57.7673 119.119 58.0687 118.858 58.0687 118.064C58.0687 117.385 57.7905 116.834 57.2806 116.834Z" fill="#1B1B1B"/>
<path d="M60.6537 119.253V119.09C60.9898 119.055 61.0246 119.015 61.0246 118.62V117.664C61.0246 117.258 60.8797 116.985 60.4972 116.985C60.2596 116.985 60.0336 117.124 59.854 117.287V118.644C59.854 119.044 59.8888 119.056 60.2307 119.091V119.253H58.9785V119.091C59.3609 119.05 59.3957 119.027 59.3957 118.644V117.449C59.3957 117.072 59.3551 117.055 59.0422 117.002V116.852C59.3262 116.805 59.6101 116.73 59.8535 116.62C59.8535 116.753 59.8535 116.939 59.8535 117.078C59.9694 116.997 60.0969 116.91 60.2476 116.811C60.4098 116.707 60.5605 116.637 60.7285 116.637C61.1921 116.637 61.4819 116.979 61.4819 117.542V118.644C61.4819 119.038 61.5167 119.055 61.8528 119.09V119.253H60.6537Z" fill="#1B1B1B"/>
<path d="M63.6449 117.396C63.5405 117.06 63.3899 116.828 63.0364 116.828C62.8336 116.828 62.6771 116.973 62.6771 117.205C62.6771 117.454 62.8452 117.57 63.1697 117.721C63.668 117.959 63.9172 118.133 63.9172 118.516C63.9172 119.049 63.4304 119.322 62.9726 119.322C62.6713 119.322 62.4047 119.229 62.283 119.159C62.2541 118.991 62.2019 118.672 62.1787 118.481L62.3468 118.452C62.4511 118.823 62.6539 119.125 63.0596 119.125C63.2798 119.125 63.4652 118.974 63.4652 118.73C63.4652 118.469 63.3088 118.336 63.0016 118.185C62.596 117.988 62.2657 117.802 62.2657 117.385C62.2657 116.961 62.6249 116.637 63.1697 116.637C63.4131 116.637 63.6101 116.694 63.726 116.712C63.7434 116.851 63.7839 117.216 63.8129 117.356L63.6449 117.396Z" fill="#1B1B1B"/>
<path d="M67.0528 119.119C66.7746 119.16 66.4617 119.235 66.1662 119.322C66.1662 119.229 66.1662 119.021 66.1662 118.876C65.8532 119.137 65.5982 119.322 65.2795 119.322C64.8913 119.322 64.5552 119.084 64.5552 118.452V117.327C64.5552 117.013 64.5088 116.979 64.3639 116.95L64.2017 116.921V116.77C64.4508 116.758 64.8333 116.7 65.0303 116.665C65.013 116.851 65.013 117.129 65.013 117.512V118.301C65.013 118.811 65.2795 118.956 65.5403 118.956C65.7547 118.956 65.9691 118.864 66.1662 118.678V117.326C66.1662 117.013 66.0966 116.972 65.8996 116.943L65.7141 116.92V116.769C66.085 116.752 66.4907 116.688 66.624 116.665V118.608C66.624 118.898 66.6703 118.939 66.8905 118.951L67.0528 118.956V119.119Z" fill="#1B1B1B"/>
<path d="M67.2556 119.253V119.09C67.6265 119.055 67.6728 119.026 67.6728 118.644V115.865C67.6728 115.511 67.6439 115.477 67.273 115.43V115.279C67.5859 115.245 67.9452 115.152 68.1306 115.082C68.1306 115.355 68.1306 115.633 68.1306 115.906V118.644C68.1306 119.026 68.1654 119.055 68.5421 119.09V119.253H67.2556Z" fill="#1B1B1B"/>
<path d="M69.9507 119.247C69.8522 119.299 69.7595 119.322 69.7016 119.322C69.3307 119.322 69.1336 119.096 69.1336 118.632V116.944H68.7338L68.7106 116.874L68.8671 116.706H69.1336V116.219C69.2438 116.103 69.4118 115.952 69.5219 115.836L69.6088 115.848C69.5972 116.091 69.5914 116.428 69.5914 116.706H70.2521C70.3042 116.764 70.2868 116.892 70.2173 116.944H69.5914V118.429C69.5914 118.899 69.7769 118.986 69.9276 118.986C70.0666 118.986 70.1999 118.934 70.2811 118.893L70.3332 119.044L69.9507 119.247Z" fill="#1B1B1B"/>
<path d="M74.5587 116.95C74.153 116.996 74.0835 117.1 73.8923 117.385C73.7416 117.605 73.5851 117.837 73.3765 118.15C73.6257 118.388 74.1936 119.014 74.3617 119.299L74.3269 119.362C74.0082 119.333 73.6837 119.2 73.6141 119.125C73.5446 119.043 73.2664 118.777 73.081 118.579C72.6579 119.142 72.2755 119.333 71.8578 119.333C71.1102 119.333 70.6988 118.788 70.6988 118.284C70.7046 117.744 71.0117 117.53 71.568 117.176C71.2899 116.938 71.116 116.671 71.116 116.352C71.1218 115.83 71.5564 115.436 72.078 115.436C72.5589 115.436 72.9414 115.767 72.9414 116.236C72.9356 116.474 72.8197 116.648 72.6922 116.752C72.5821 116.839 72.4083 116.95 72.1939 117.077C72.3851 117.24 72.8603 117.634 73.2312 117.999C73.3644 117.791 73.4803 117.599 73.5905 117.338C73.7006 117.071 73.6542 116.996 73.2312 116.95V116.781H74.5587V116.95ZM71.9968 118.934C72.3967 118.934 72.6227 118.806 72.9298 118.417C72.6285 118.081 72.2228 117.739 71.724 117.315C71.3125 117.588 71.1966 117.837 71.1966 118.133C71.1971 118.678 71.6202 118.934 71.9968 118.934ZM72.0142 115.638C71.7245 115.638 71.5448 115.865 71.5448 116.207C71.5448 116.503 71.6955 116.682 72.0432 116.961C72.3677 116.729 72.5068 116.543 72.5068 116.247C72.501 115.911 72.3329 115.638 72.0142 115.638Z" fill="#1B1B1B"/>
<path d="M74.8137 116.828C75.086 116.787 75.3874 116.689 75.6539 116.578C75.6539 116.718 75.6539 116.903 75.6539 117.042C75.6713 117.031 76.1349 116.764 76.1581 116.752C76.2972 116.677 76.4189 116.636 76.4942 116.636C77.1317 116.636 77.5199 117.17 77.5199 117.744C77.5199 118.626 76.8245 119.183 76.0649 119.322C75.8911 119.316 75.7346 119.264 75.6535 119.218V120.001C75.6535 120.43 75.6998 120.465 76.146 120.505V120.668H74.7721V120.505C75.1488 120.465 75.1952 120.436 75.1952 120.047V117.408C75.1952 117.06 75.1836 117.037 74.8127 116.984V116.828H74.8137ZM75.6544 118.812C75.7877 118.945 76.0137 119.038 76.2049 119.038C76.7091 119.038 77.0336 118.615 77.0336 117.965C77.0336 117.339 76.6685 116.985 76.2571 116.985C76.0543 116.985 75.8109 117.118 75.6544 117.234V118.812Z" fill="#1B1B1B"/>
<path d="M79.2478 119.253H77.9145V119.09C78.2795 119.055 78.3143 119.026 78.3143 118.649V117.443C78.3143 117.06 78.2911 117.042 77.955 117.002V116.857C78.239 116.81 78.4997 116.741 78.7721 116.619C78.7721 116.81 78.7721 117.066 78.7721 117.257C78.9749 116.955 79.2183 116.636 79.5081 116.636C79.7225 116.636 79.8442 116.77 79.8442 116.915C79.8442 117.048 79.7515 117.176 79.6471 117.234C79.5892 117.269 79.5428 117.263 79.4965 117.222C79.4096 117.135 79.34 117.077 79.2357 117.077C79.114 117.077 78.8996 117.257 78.7721 117.553V118.644C78.7721 119.026 78.8011 119.055 79.2473 119.09V119.253H79.2478Z" fill="#1B1B1B"/>
<path d="M81.3344 116.637C82.0588 116.637 82.5982 117.187 82.5982 117.936C82.5982 118.876 81.9028 119.323 81.3344 119.323C80.5347 119.323 80.0475 118.679 80.0475 118.029C80.048 117.083 80.7839 116.637 81.3344 116.637ZM81.2649 116.834C80.9114 116.834 80.5927 117.176 80.5927 117.849C80.5927 118.585 80.9172 119.119 81.3924 119.119C81.7517 119.119 82.053 118.858 82.053 118.064C82.0535 117.385 81.7753 116.834 81.2649 116.834Z" fill="#1B1B1B"/>
<path d="M85.8555 119.108C85.7338 119.131 85.2992 119.2 84.9573 119.322C84.9573 119.2 84.9573 119.067 84.9573 118.945C84.8529 119.009 84.7023 119.09 84.598 119.154C84.3662 119.287 84.2097 119.322 84.1402 119.322C83.6766 119.322 83.0618 118.858 83.0618 118.046C83.0618 117.24 83.7688 116.636 84.5632 116.636C84.6443 116.636 84.8356 116.648 84.9573 116.7V115.847C84.9573 115.476 84.9167 115.464 84.5052 115.43V115.279C84.795 115.238 85.2006 115.157 85.4151 115.082C85.4151 115.296 85.4151 115.551 85.4151 115.789V118.579C85.4151 118.881 85.4556 118.922 85.67 118.933L85.8555 118.945V119.108ZM84.9573 117.158C84.824 116.955 84.5748 116.863 84.3488 116.863C84.0706 116.863 83.5781 117.048 83.5781 117.883C83.5781 118.585 84.0127 118.957 84.3836 118.963C84.5922 118.963 84.8182 118.858 84.9573 118.754V117.158Z" fill="#1B1B1B"/>
<path d="M88.9162 119.119C88.638 119.16 88.3251 119.235 88.0295 119.322C88.0295 119.229 88.0295 119.021 88.0295 118.876C87.7166 119.137 87.4616 119.322 87.1429 119.322C86.7547 119.322 86.4185 119.084 86.4185 118.452V117.327C86.4185 117.013 86.3722 116.979 86.2273 116.95L86.065 116.921V116.77C86.3142 116.758 86.6967 116.7 86.8937 116.665C86.8763 116.851 86.8763 117.129 86.8763 117.512V118.301C86.8763 118.811 87.1429 118.956 87.4037 118.956C87.6181 118.956 87.8325 118.864 88.0295 118.678V117.326C88.0295 117.013 87.96 116.972 87.763 116.943L87.5775 116.92V116.769C87.9484 116.752 88.3541 116.688 88.4873 116.665V118.608C88.4873 118.898 88.5337 118.939 88.7539 118.951L88.9162 118.956V119.119Z" fill="#1B1B1B"/>
<path d="M91.3737 118.73C91.1187 119.067 90.7305 119.322 90.3828 119.322C89.6468 119.322 89.2117 118.724 89.2117 118.103C89.2117 117.645 89.4087 117.262 89.797 116.966C90.1041 116.728 90.4518 116.636 90.6778 116.636C90.9386 116.636 91.1299 116.717 91.2168 116.792C91.2979 116.856 91.3095 116.897 91.3095 116.96C91.3095 117.099 91.1646 117.221 91.1009 117.221C91.0719 117.221 91.0487 117.21 90.9908 117.163C90.8111 117.001 90.6141 116.92 90.4055 116.92C90.023 116.92 89.6869 117.244 89.6869 117.848C89.6811 118.654 90.2316 118.921 90.5677 118.921C90.8111 118.921 91.0082 118.857 91.2747 118.602L91.3737 118.73Z" fill="#1B1B1B"/>
<path d="M92.8746 119.247C92.7761 119.299 92.6834 119.322 92.6254 119.322C92.2545 119.322 92.0575 119.096 92.0575 118.632V116.944H91.6577L91.6345 116.874L91.791 116.706H92.0575V116.219C92.1676 116.103 92.3357 115.952 92.4458 115.836L92.5327 115.848C92.5211 116.091 92.5153 116.428 92.5153 116.706H93.1759C93.2281 116.764 93.2107 116.892 93.1412 116.944H92.5153V118.429C92.5153 118.899 92.7008 118.986 92.8514 118.986C92.9905 118.986 93.1238 118.934 93.2049 118.893L93.2571 119.044L92.8746 119.247Z" fill="#1B1B1B"/>
<path d="M93.4947 119.253V119.09C93.8597 119.055 93.9003 119.026 93.9003 118.632V117.437C93.9003 117.077 93.8829 117.054 93.5352 116.996V116.857C93.8366 116.805 94.1089 116.729 94.3581 116.625C94.3581 116.868 94.3581 117.112 94.3581 117.356V118.632C94.3581 119.026 94.3987 119.055 94.7753 119.09V119.253H93.4947ZM94.0978 116.056C93.9356 116.056 93.7907 115.911 93.7907 115.749C93.7907 115.563 93.9356 115.43 94.1036 115.43C94.2659 115.43 94.3992 115.563 94.3992 115.749C94.3992 115.911 94.2659 116.056 94.0978 116.056Z" fill="#1B1B1B"/>
<path d="M96.3641 116.637C97.0885 116.637 97.6279 117.187 97.6279 117.936C97.6279 118.876 96.9325 119.323 96.3641 119.323C95.5644 119.323 95.0772 118.679 95.0772 118.029C95.0772 117.083 95.8131 116.637 96.3641 116.637ZM96.2946 116.834C95.9411 116.834 95.6224 117.176 95.6224 117.849C95.6224 118.585 95.9469 119.119 96.4221 119.119C96.7814 119.119 97.0827 118.858 97.0827 118.064C97.0827 117.385 96.8046 116.834 96.2946 116.834Z" fill="#1B1B1B"/>
<path d="M99.6677 119.253V119.09C100.004 119.055 100.039 119.015 100.039 118.62V117.664C100.039 117.258 99.8938 116.985 99.5113 116.985C99.2737 116.985 99.0477 117.124 98.868 117.287V118.644C98.868 119.044 98.9028 119.056 99.2447 119.091V119.253H97.9925V119.091C98.375 119.05 98.4098 119.027 98.4098 118.644V117.449C98.4098 117.072 98.3692 117.055 98.0563 117.002V116.852C98.3402 116.805 98.6242 116.73 98.8676 116.62C98.8676 116.753 98.8676 116.939 98.8676 117.078C98.9835 116.997 99.1109 116.91 99.2616 116.811C99.4239 116.707 99.5745 116.637 99.7426 116.637C100.206 116.637 100.496 116.979 100.496 117.542V118.644C100.496 119.038 100.531 119.055 100.867 119.09V119.253H99.6677Z" fill="#1B1B1B"/>
<path fill-rule="evenodd" clip-rule="evenodd" d="M77.1819 48.4963C74.8227 48.4963 72.9105 50.4101 72.9105 52.7706C72.9105 53.7788 73.2584 54.7038 73.841 55.4344L73.8442 55.4384L73.8443 55.4386C73.8453 55.4398 73.8463 55.4411 73.8473 55.4424C73.8499 55.4457 73.8542 55.4511 73.8597 55.4583C74.6911 56.5005 75.1667 57.7929 75.1667 59.1435V64.6343H79.1966V59.1435C79.1966 57.8072 79.6517 56.5067 80.4971 55.4662L80.4972 55.466C81.0952 54.7305 81.4532 53.7933 81.4532 52.7706C81.4532 50.4101 79.541 48.4963 77.1819 48.4963ZM71.2686 52.7706C71.2686 49.5025 73.916 46.853 77.1819 46.853C80.4477 46.853 83.0951 49.5025 83.0951 52.7706C83.0951 54.1846 82.5984 55.4851 81.771 56.5029C81.1666 57.2468 80.8385 58.1802 80.8385 59.1435V66.2775H73.5248V59.1435C73.5248 58.178 73.1834 57.2399 72.5688 56.4739L72.5461 56.4455L72.5432 56.4412C71.7456 55.4328 71.2686 54.1561 71.2686 52.7706Z" fill="#1B1B1B"/>
</svg>
