<svg width="90" height="90" viewBox="0 0 90 90" fill="none" xmlns="http://www.w3.org/2000/svg">
<path d="M58.9995 12C58.6755 12 58.359 12.105 58.0995 12.3L53.1 17.55C52.7235 17.832 52.5 18.2775 52.5 18.75V27C52.5 27.828 53.172 28.5 54 28.5H65.5005C65.826 28.5 66.141 28.395 66.4005 28.2L71.4 22.95C71.7765 22.668 72 22.2225 72 21.75V13.5C72 12.672 71.328 12 70.5 12H58.9995Z" fill="#FCE483" stroke="#6E6E66" stroke-width="3" stroke-miterlimit="10"/>
<path d="M70.5 45V51" stroke="#6E6E66" stroke-width="3" stroke-miterlimit="10"/>
<path d="M81.5625 46.77L78.813 52.2495" stroke="#6E6E66" stroke-width="3" stroke-miterlimit="10"/>
<path d="M59.5185 46.719L61.7595 52.2495" stroke="#6E6E66" stroke-width="3" stroke-miterlimit="10"/>
<path d="M52.701 18H64.5C65.328 18 66 18.672 66 19.5V28.413" stroke="#6E6E66" stroke-width="3" stroke-miterlimit="10"/>
<path d="M65.5605 18.4395L71.5605 12.4395" stroke="#6E6E66" stroke-width="3" stroke-miterlimit="10"/>
<path d="M49.5 45C51.9853 45 54 42.9853 54 40.5C54 38.0147 51.9853 36 49.5 36C47.0147 36 45 38.0147 45 40.5C45 42.9853 47.0147 45 49.5 45Z" stroke="#6E6E66" stroke-width="3" stroke-miterlimit="10"/>
<path d="M42 54C42.8284 54 43.5 53.3284 43.5 52.5C43.5 51.6716 42.8284 51 42 51C41.1716 51 40.5 51.6716 40.5 52.5C40.5 53.3284 41.1716 54 42 54Z" stroke="#6E6E66" stroke-width="3" stroke-miterlimit="10"/>
<path d="M46.7295 81H30.8295" stroke="#6E6E66" stroke-width="3" stroke-miterlimit="10"/>
<path d="M46.5 87H33.747" stroke="#6E6E66" stroke-width="3" stroke-miterlimit="10"/>
<path d="M34.5 81V73.5" stroke="#6E6E66" stroke-width="3" stroke-miterlimit="10"/>
<path d="M31.5 43.5V51.75C31.5 56.307 27.807 60 23.25 60C18.693 60 15 56.307 15 51.75V44.2815" stroke="#6E6E66" stroke-width="3" stroke-miterlimit="10"/>
<path d="M22.5 45H18.4725C13.032 45 10.5 40.5 10.5 37.5C10.5 36.1245 10.5 34.5 10.5 34.5C10.5 34.5 11.844 36 15 36C18.282 36 19.5 33 24 33C25.611 33 31.5 33 31.5 39V45" stroke="#6E6E66" stroke-width="3" stroke-miterlimit="10"/>
<path d="M66.6585 36.294C67.5195 38.0145 69.1935 39 71.25 39C74.1495 39 76.5 36.6495 76.5 33.75C76.5 33.4965 76.4505 32.9715 76.4505 32.9715C76.7145 32.991 76.9815 33 77.25 33C83.463 33 88.5 27.963 88.5 21.75C88.5 15.6585 83.6565 10.7115 77.6115 10.518C76.284 5.337 71.595 1.5 66 1.5C62.523 1.5 59.4015 2.988 57.21 5.3505C55.1475 2.9955 52.1265 1.5 48.75 1.5C42.537 1.5 37.5 6.537 37.5 12.75C37.5 15.5835 38.556 18.1635 40.2825 20.142C38.634 21.027 37.5 22.7475 37.5 24.75C37.5 27.6495 40.3185 30 43.2195 30" stroke="#6E6E66" stroke-width="3" stroke-miterlimit="10"/>
<path d="M72.6135 71.5576L75.354 64.9036" stroke="#6E6E66" stroke-width="3" stroke-miterlimit="10"/>
<path d="M69.5295 79.0485L71.196 75" stroke="#6E6E66" stroke-width="3" stroke-miterlimit="10"/>
<path d="M15 81.0001H30.75C32.82 81.0001 34.5 82.6786 34.5 84.7501C34.5 86.8216 32.82 88.5001 30.75 88.5001H8.25C6.1785 88.5001 4.5 86.8216 4.5 84.7501C4.5 84.3751 4.5555 84.0121 4.6575 83.6701L9.1575 68.6701C9.621 67.1251 11.0535 66.0001 12.75 66.0001H16.503C18.156 66.0001 19.5 64.6561 19.5 63.0001V59.1001" stroke="#6E6E66" stroke-width="3" stroke-miterlimit="10"/>
<path d="M47.343 79.5121L38.214 67.4521C37.5285 66.5686 36.456 66.0001 35.25 66.0001H30.003C28.344 66.0001 27 64.6561 27 63.0001V59.1001" stroke="#6E6E66" stroke-width="3" stroke-miterlimit="10"/>
<path d="M73.3875 86.0715C73.1625 86.616 72.6255 87 72 87H46.5C45.672 87 45 86.328 45 85.5C45 85.2975 45.039 85.1055 45.1125 84.93L55.6125 59.43C55.8375 58.884 56.3745 58.5 57 58.5H82.5C83.328 58.5 84 59.172 84 60C84 60.2025 83.9595 60.3945 83.8875 60.57L73.3875 86.0715Z" stroke="#6E6E66" stroke-width="3" stroke-miterlimit="10"/>
</svg>
