<svg width="90" height="90" viewBox="0 0 90 90" fill="none" xmlns="http://www.w3.org/2000/svg">
<path d="M70.5 28.5V58.5C70.5 59.0625 70.1895 59.553 69.7305 59.8095L45.7305 73.3095C45.5145 73.431 45.2655 73.5 45 73.5C44.7345 73.5 44.4855 73.431 44.2695 73.3095L20.2695 59.8095C19.8105 59.553 19.5 59.0625 19.5 58.5V28.5" fill="#FCE483"/>
<path d="M70.5 28.5V58.5C70.5 59.0625 70.1895 59.553 69.7305 59.8095L45.7305 73.3095C45.5145 73.431 45.2655 73.5 45 73.5C44.7345 73.5 44.4855 73.431 44.2695 73.3095L20.2695 59.8095C19.8105 59.553 19.5 59.0625 19.5 58.5V28.5H70.5Z" stroke="#6E6E66" stroke-width="3" stroke-miterlimit="10"/>
<path d="M7.5 62.769L3 64.7385" stroke="#6E6E66" stroke-width="3" stroke-miterlimit="10"/>
<path d="M15 59.4885L10.5 61.4565" stroke="#6E6E66" stroke-width="3" stroke-miterlimit="10"/>
<path d="M45 43.5C45.2655 43.5 45.5145 43.431 45.7305 43.3095L69.7305 29.8095C70.1895 29.553 70.5 29.0625 70.5 28.5C70.5 27.885 70.1295 27.357 69.6 27.1245L45.6015 16.6245C45.417 16.545 45.2145 16.5 45 16.5C44.7855 16.5 44.583 16.545 44.3985 16.626L20.4 27.126C19.8705 27.357 19.5 27.885 19.5 28.5C19.5 29.0625 19.8105 29.553 20.2695 29.8095L44.2695 43.3095C44.4855 43.431 44.7345 43.5 45 43.5Z" fill="#FCE483" stroke="#6E6E66" stroke-width="3" stroke-miterlimit="10"/>
<path d="M10.503 24.3164L14.991 26.8409" stroke="#6E6E66" stroke-width="3" stroke-miterlimit="10"/>
<path d="M2.991 20.0911L7.494 22.6246" stroke="#6E6E66" stroke-width="3" stroke-miterlimit="10"/>
<path d="M45 73.5V43.5" stroke="#6E6E66" stroke-width="3" stroke-miterlimit="10"/>
<path d="M45 0V4.5" stroke="#6E6E66" stroke-width="3" stroke-miterlimit="10"/>
<path d="M45 7.5V12" stroke="#6E6E66" stroke-width="3" stroke-miterlimit="10"/>
<path d="M79.497 24.3164L75.009 26.8409" stroke="#6E6E66" stroke-width="3" stroke-miterlimit="10"/>
<path d="M87.009 20.0911L82.506 22.6246" stroke="#6E6E66" stroke-width="3" stroke-miterlimit="10"/>
<path d="M45 90V85.5" stroke="#6E6E66" stroke-width="3" stroke-miterlimit="10"/>
<path d="M45 82.5V78" stroke="#6E6E66" stroke-width="3" stroke-miterlimit="10"/>
<path d="M82.5 62.769L87 64.7385" stroke="#6E6E66" stroke-width="3" stroke-miterlimit="10"/>
<path d="M75 59.4885L79.5 61.4565" stroke="#6E6E66" stroke-width="3" stroke-miterlimit="10"/>
</svg>
