<svg width="90" height="90" viewBox="0 0 90 90" fill="none" xmlns="http://www.w3.org/2000/svg">
<path d="M9.74695 3.75L17.2934 11.2965" stroke="#6E6E66" stroke-width="3" stroke-miterlimit="10"/>
<path d="M11.997 22.5H3" stroke="#6E6E66" stroke-width="3" stroke-miterlimit="10"/>
<path d="M10.5 78.69V36C10.5 31.029 14.529 27 19.5 27H75.81C78.6765 27 81 24.8565 81 21.69L81 64.3931C81 69.3641 76.971 73.3931 72 73.3931H66L57 73.5H15.6825C12.816 73.5 10.5 75.8235 10.5 78.69Z" fill="#FCE483"/>
<path d="M10.5 78.69V36C10.5 31.029 14.529 27 19.5 27H75.81C78.6765 27 81 24.8565 81 21.69M10.5 78.69C10.5 81 12.8235 84 15.69 84H22.5V78M10.5 78.69C10.5 75.8235 12.816 73.5 15.6825 73.5H57L66 73.3931H72C76.971 73.3931 81 69.3641 81 64.3931L81 21.69M81 21.69C81 19.125 78.6765 16.5 75.81 16.5H70.5V22.5" stroke="#6E6E66" stroke-width="3" stroke-miterlimit="10"/>
<path d="M48 79.5H51" stroke="#6E6E66" stroke-width="3" stroke-miterlimit="10"/>
<path d="M54 79.5H72" stroke="#6E6E66" stroke-width="3" stroke-miterlimit="10"/>
<path d="M65.3745 47.25L69 54V66H21V48H36" stroke="#6E6E66" stroke-width="3" stroke-miterlimit="10"/>
<path d="M69 42V34.5H36V55.5" stroke="#6E6E66" stroke-width="3" stroke-miterlimit="10"/>
<path d="M55.5 66V55.5C55.5 54.672 54.828 54 54 54H48C47.172 54 46.5 54.672 46.5 55.5V63" stroke="#6E6E66" stroke-width="3" stroke-miterlimit="10"/>
<path d="M39 66V61.5C39 60.672 39.672 60 40.5 60H45C45.828 60 46.5 60.672 46.5 61.5V66" stroke="#6E6E66" stroke-width="3" stroke-miterlimit="10"/>
<path d="M21 54H28.5C29.328 54 30 54.672 30 55.5V58.5C30 59.328 29.328 60 28.5 60H25.5" stroke="#6E6E66" stroke-width="3" stroke-miterlimit="10"/>
<path d="M51 34.5V42" stroke="#6E6E66" stroke-width="3" stroke-miterlimit="10"/>
<path d="M46.5 40.5H43.5C42.672 40.5 42 39.828 42 39V34.5" stroke="#6E6E66" stroke-width="3" stroke-miterlimit="10"/>
<path d="M58.5 39H55.5V42H58.5V39Z" fill="#6E6E66"/>
<path d="M64.5 39H61.5V42H64.5V39Z" fill="#6E6E66"/>
<path d="M30 15V27" stroke="#6E6E66" stroke-width="3" stroke-miterlimit="10"/>
<path d="M24 27V15.795C24 15.2745 24.135 14.7615 24.393 14.31L28.7325 6.6975C28.9995 6.2775 29.4675 6 30 6C30.5175 6 30.975 6.2625 31.2435 6.6615L35.6055 14.3085C35.8635 14.7615 36 15.2745 36 15.795V27" stroke="#6E6E66" stroke-width="3" stroke-miterlimit="10"/>
<path d="M24.108 15H35.892" stroke="#6E6E66" stroke-width="3" stroke-miterlimit="10"/>
<path d="M50.2216 13.5869L55.1881 16.9994" stroke="#6E6E66" stroke-width="3" stroke-miterlimit="10"/>
<path d="M41.562 27L52.737 9.69C53.004 9.2745 53.4705 9 54 9C54.2715 9 54.5265 9.072 54.747 9.198L63.747 15.198C64.197 15.4575 64.5 15.9435 64.5 16.5C64.5 16.7985 64.413 17.076 64.263 17.31L58.0335 27" stroke="#6E6E66" stroke-width="3" stroke-miterlimit="10"/>
<path d="M52.062 21.5626L47.274 18.1516" stroke="#6E6E66" stroke-width="3" stroke-miterlimit="10"/>
</svg>
