<svg width="90" height="90" viewBox="0 0 90 90" fill="none" xmlns="http://www.w3.org/2000/svg">
<path d="M58.5 27C62.6421 27 66 23.3063 66 18.75C66 14.1937 62.6421 10.5 58.5 10.5C54.3579 10.5 51 14.1937 51 18.75C51 23.3063 54.3579 27 58.5 27Z" stroke="#6E6E66" stroke-width="3" stroke-miterlimit="10"/>
<path d="M58.5 88.5V58.5" stroke="#6E6E66" stroke-width="3" stroke-miterlimit="10"/>
<path d="M66 45V82.5L67.6545 83.052C69.354 83.6175 70.5 85.209 70.5 87C70.5 87.828 69.828 88.5 69 88.5H48C47.172 88.5 46.5 87.828 46.5 87C46.5 85.209 47.646 83.6175 49.3455 83.052L51 82.5V57" stroke="#6E6E66" stroke-width="3" stroke-miterlimit="10"/>
<path d="M51 7.5H3C2.172 7.5 1.5 8.172 1.5 9V52.5" stroke="#6E6E66" stroke-width="3" stroke-miterlimit="10"/>
<path d="M0 57H3" stroke="#6E6E66" stroke-width="3" stroke-miterlimit="10"/>
<path d="M6 57H9" stroke="#6E6E66" stroke-width="3" stroke-miterlimit="10"/>
<path d="M12 57H15" stroke="#6E6E66" stroke-width="3" stroke-miterlimit="10"/>
<path d="M18 57H46.5" stroke="#6E6E66" stroke-width="3" stroke-miterlimit="10"/>
<path d="M3 63H24" stroke="#6E6E66" stroke-width="3" stroke-miterlimit="10"/>
<path d="M27 63H31.5" stroke="#6E6E66" stroke-width="3" stroke-miterlimit="10"/>
<path d="M12 45C14.4853 45 16.5 42.9853 16.5 40.5C16.5 38.0147 14.4853 36 12 36C9.51472 36 7.5 38.0147 7.5 40.5C7.5 42.9853 9.51472 45 12 45Z" fill="#FCE483" stroke="#6E6E66" stroke-width="3" stroke-miterlimit="10"/>
<path d="M21 27C23.4853 27 25.5 24.9853 25.5 22.5C25.5 20.0147 23.4853 18 21 18C18.5147 18 16.5 20.0147 16.5 22.5C16.5 24.9853 18.5147 27 21 27Z" fill="#FCE483" stroke="#6E6E66" stroke-width="3" stroke-miterlimit="10"/>
<path d="M40.5 27C42.9853 27 45 24.9853 45 22.5C45 20.0147 42.9853 18 40.5 18C38.0147 18 36 20.0147 36 22.5C36 24.9853 38.0147 27 40.5 27Z" fill="#FCE483" stroke="#6E6E66" stroke-width="3" stroke-miterlimit="10"/>
<path d="M14.0131 36.4754L18.9871 26.5244" stroke="#6E6E66" stroke-width="3" stroke-miterlimit="10"/>
<path d="M25.5 22.5H36" stroke="#6E6E66" stroke-width="3" stroke-miterlimit="10"/>
<path d="M7.5 13.5V18" stroke="#6E6E66" stroke-width="3" stroke-miterlimit="10"/>
<path d="M7.5 21V31.5" stroke="#6E6E66" stroke-width="3" stroke-miterlimit="10"/>
<path d="M87 15H81.906L75.7515 20.8755C75.4695 21.1455 75 20.9445 75 20.553V15H72C71.172 15 70.5 14.328 70.5 13.5V4.5C70.5 3.672 71.172 3 72 3H87C87.828 3 88.5 3.672 88.5 4.5V13.5C88.5 14.328 87.828 15 87 15Z" fill="#FCE483" stroke="#6E6E66" stroke-width="3" stroke-miterlimit="10"/>
<path d="M51 58.5V39H34.5C32.8425 39 31.5 37.6575 31.5 36C31.5 34.3425 32.8425 33 34.5 33H63C67.971 33 72 37.029 72 42V59.25C72 61.3215 70.3215 63 68.25 63H66" stroke="#6E6E66" stroke-width="3" stroke-miterlimit="10"/>
</svg>
