<svg width="24" height="24" viewBox="0 0 24 24" fill="none" xmlns="http://www.w3.org/2000/svg">
<g clip-path="url(#clip0_801_1084)">
<path d="M17.375 10.795C15.935 13.625 13.62 15.94 10.785 17.38L8.585 15.175C8.31 14.9 7.915 14.82 7.57 14.93C6.45 15.3 5.245 15.5 4 15.5C3.445 15.5 3 15.945 3 16.5V20C3 20.555 3.445 21 4 21C13.39 21 21 13.39 21 4C21 3.445 20.55 3 20 3H16.5C15.945 3 15.5 3.445 15.5 4C15.5 5.245 15.3 6.45 14.93 7.57C14.82 7.915 14.9 8.31 15.175 8.585L17.375 10.795Z" fill="#1B1B1B"/>
</g>
<defs>
<clipPath id="clip0_801_1084">
<rect width="24" height="24" fill="white" transform="matrix(-1 0 0 1 24 0)"/>
</clipPath>
</defs>
</svg>
